<?xml version="1.0" standalone="no"?>
<!DOCTYPE svg PUBLIC "-//W3C//DTD SVG 20010904//EN"
 "http://www.w3.org/TR/2001/REC-SVG-20010904/DTD/svg10.dtd">
<svg version="1.0" xmlns="http://www.w3.org/2000/svg"
 width="256.000000pt" height="256.000000pt" viewBox="0 0 256.000000 256.000000"
 preserveAspectRatio="xMidYMid meet">
<metadata>
Created by potrace 1.14, written by Peter Selinger 2001-2017
</metadata>
<g transform="translate(0.000000,256.000000) scale(0.100000,-0.100000)"
fill="#000000" stroke="none">
<path d="M860 2064 c-61 -27 -102 -65 -126 -121 -13 -29 -24 -60 -24 -68 0 -8
-18 -19 -42 -26 -59 -15 -97 -36 -135 -71 -28 -27 -34 -29 -65 -20 -98 31
-165 24 -240 -26 -45 -29 -95 -101 -104 -148 -3 -18 1 -68 10 -110 l15 -77
-34 -38 c-57 -63 -69 -96 -70 -179 0 -52 5 -85 18 -109 17 -34 17 -35 -6 -60
-51 -56 -61 -127 -27 -195 36 -75 126 -114 157 -69 14 20 13 24 -9 43 -12 11
-35 31 -51 45 -35 31 -37 82 -4 113 13 12 29 22 35 22 6 0 19 11 28 26 16 24
16 26 -3 52 -76 103 -69 195 19 265 31 25 48 31 98 33 70 2 90 15 90 58 1 54
41 86 105 84 46 -2 57 14 51 68 -10 77 30 156 95 189 44 23 117 19 168 -10 23
-14 48 -25 54 -25 5 0 27 18 47 40 43 46 76 51 121 19 44 -31 72 -20 94 37 31
81 119 127 202 105 39 -11 65 -34 129 -118 21 -26 24 -27 56 -15 72 25 112 11
142 -51 15 -29 53 -34 79 -8 30 27 70 41 123 41 58 0 97 -21 134 -72 25 -34
30 -51 30 -99 0 -48 4 -60 22 -73 12 -9 34 -16 48 -16 38 0 70 -38 70 -84 0
-20 5 -46 11 -57 9 -18 17 -19 63 -14 154 19 258 -135 176 -260 -28 -42 -25
-71 10 -96 60 -45 57 -108 -8 -152 -48 -32 -56 -69 -21 -87 16 -9 30 -7 67 12
91 45 122 161 66 243 -26 38 -26 39 -10 88 33 101 10 194 -65 269 -47 47 -49
52 -40 81 23 72 24 132 3 180 -56 127 -197 186 -328 136 -17 -6 -27 -2 -45 17
-29 31 -115 74 -148 74 -36 0 -45 9 -59 56 -28 96 -110 164 -207 172 -80 7
-118 -4 -175 -49 -51 -40 -53 -41 -95 -30 -60 15 -96 14 -150 -5 l-46 -15 -48
40 c-26 22 -60 45 -75 51 -39 15 -135 12 -176 -6z"/>
<path d="M1103 1644 c-191 -32 -346 -106 -511 -244 -199 -166 -346 -466 -354
-722 -3 -109 10 -149 57 -178 32 -20 48 -20 986 -20 939 0 955 0 987 20 52 32
65 76 57 189 -29 419 -307 778 -705 914 -160 55 -348 70 -517 41z m411 -103
c401 -105 694 -455 723 -862 6 -82 5 -87 -18 -102 -21 -16 -104 -17 -941 -17
l-918 0 -21 21 c-19 19 -20 28 -14 92 39 404 266 702 643 843 152 58 382 68
546 25z"/>
</g>
</svg>
